{
  "accessors": [
    {
      "bufferView": 2,
      "componentType": 5126,
      "count": 65532,
      "max": [
        27.743087768554688,
        17.011184692382813,
        2.828700065612793
      ],
      "min": [
        -33.0842170715332,
        -29.095123291015625,
        -0.9512100219726563
      ],
      "type": "VEC3"
    },
    {
      "bufferView": 2,
      "byteOffset": 786384,
      "componentType": 5126,
      "count": 65532,
      "max": [
        0.9999039769172668,
        0.999971866607666,
        0.9999989867210388
      ],
      "min": [
        -0.9999476671218872,
        -0.9998948574066162,
        -0.9994955062866211
      ],
      "type": "VEC3"
    },
    {
      "bufferView": 1,
      "componentType": 5126,
      "count": 65532,
      "max": [
        0.9992679953575134,
        0.99925297498703
      ],
      "min": [
        0.0007319999858736992,
        0.0007469999836757779
      ],
      "type": "VEC2"
    },
    {
      "bufferView": 0,
      "componentType": 5125,
      "count": 287943,
      "type": "SCALAR"
    },
    {
      "bufferView": 2,
      "byteOffset": 1572768,
      "componentType": 5126,
      "count": 15122,
      "max": [
        24.910493850708008,
        25.458526611328125,
        3.1281280517578125
      ],
      "min": [
        -11.472901344299316,
        -7.137051105499268,
        -0.8159869909286499
      ],
      "type": "VEC3"
    },
    {
      "bufferView": 2,
      "byteOffset": 1754232,
      "componentType": 5126,
      "count": 15122,
      "max": [
        0.9998739957809448,
        0.9968180060386658,
        0.9999987483024597
      ],
      "min": [
        -0.9995196461677551,
        -0.9999350905418396,
        -0.9991241097450256
      ],
      "type": "VEC3"
    },
    {
      "bufferView": 1,
      "byteOffset": 524256,
      "componentType": 5126,
      "count": 15122,
      "max": [
        0.9992679953575134,
        0.99925297498703
      ],
      "min": [
        0.0007319999858736992,
        0.0007469999836757779
      ],
      "type": "VEC2"
    },
    {
      "bufferView": 0,
      "byteOffset": 1151772,
      "componentType": 5125,
      "count": 65706,
      "type": "SCALAR"
    }
  ],
  "asset": {
    "extras": {
      "author": "vrchris (https://sketchfab.com/vrchris)",
      "license": "CC-BY-4.0 (http://creativecommons.org/licenses/by/4.0/)",
      "source": "https://sketchfab.com/3d-models/battlefield-1-desert-map-bc2ddc5210464711b074a22957a3360f",
      "title": "Battlefield 1 - Desert Map"
    },
    "generator": "Sketchfab-12.67.0",
    "version": "2.0"
  },
  "bufferViews": [
    {
      "buffer": 0,
      "byteLength": 1414596,
      "name": "floatBufferViews",
      "target": 34963
    },
    {
      "buffer": 0,
      "byteLength": 645232,
      "byteOffset": 1414596,
      "byteStride": 8,
      "name": "floatBufferViews",
      "target": 34962
    },
    {
      "buffer": 0,
      "byteLength": 1935696,
      "byteOffset": 2059828,
      "byteStride": 12,
      "name": "floatBufferViews",
      "target": 34962
    }
  ],
  "buffers": [
    {
      "byteLength": 3995524,
      "uri": "scene.bin"
    }
  ],
  "extensionsUsed": [
    "KHR_materials_unlit"
  ],
  "images": [
    {
      "uri": "textures/Material_0_baseColor.jpeg"
    }
  ],
  "materials": [
    {
      "extensions": {
        "KHR_materials_unlit": {}
      },
      "name": "Material_0",
      "pbrMetallicRoughness": {
        "baseColorTexture": {
          "index": 0
        },
        "metallicFactor": 0.0
      }
    }
  ],
  "meshes": [
    {
      "name": "Object_0",
      "primitives": [
        {
          "attributes": {
            "NORMAL": 1,
            "POSITION": 0,
            "TEXCOORD_0": 2
          },
          "indices": 3,
          "material": 0,
          "mode": 4
        }
      ]
    },
    {
      "name": "Object_1",
      "primitives": [
        {
          "attributes": {
            "NORMAL": 5,
            "POSITION": 4,
            "TEXCOORD_0": 6
          },
          "indices": 7,
          "material": 0,
          "mode": 4
        }
      ]
    }
  ],
  "nodes": [
    {
      "children": [
        1
      ],
      "matrix": [
        1.0,
        0.0,
        0.0,
        0.0,
        0.0,
        2.220446049250313e-16,
        -1.0,
        0.0,
        0.0,
        1.0,
        2.220446049250313e-16,
        0.0,
        0.0,
        0.0,
        0.0,
        1.0
      ],
      "name": "Sketchfab_model"
    },
    {
      "children": [
        2,
        3
      ],
      "name": "DesertMap.obj.cleaner.materialmerger.gles"
    },
    {
      "mesh": 0,
      "name": "Object_2"
    },
    {
      "mesh": 1,
      "name": "Object_3"
    }
  ],
  "samplers": [
    {
      "magFilter": 9729,
      "minFilter": 9987,
      "wrapS": 10497,
      "wrapT": 10497
    }
  ],
  "scene": 0,
  "scenes": [
    {
      "name": "Sketchfab_Scene",
      "nodes": [
        0
      ]
    }
  ],
  "textures": [
    {
      "sampler": 0,
      "source": 0
    }
  ]
}
